<?xml version="1.0" standalone="no"?>
<!DOCTYPE svg PUBLIC "-//W3C//DTD SVG 20010904//EN"
 "http://www.w3.org/TR/2001/REC-SVG-20010904/DTD/svg10.dtd">
<svg version="1.0" xmlns="http://www.w3.org/2000/svg"
 width="500.000000pt" height="500.000000pt" viewBox="0 0 500.000000 500.000000"
 preserveAspectRatio="xMidYMid meet">

<g transform="translate(0.000000,500.000000) scale(0.100000,-0.100000)"
fill="#000000" stroke="none">
<path d="M2815 3381 c-52 -24 -79 -51 -115 -115 -40 -70 -64 -91 -141 -122
-35 -14 -107 -54 -159 -88 -52 -35 -119 -78 -148 -96 -29 -18 -62 -45 -75 -61
-32 -41 -175 -158 -211 -173 -17 -7 -49 -16 -71 -20 -22 -4 -48 -9 -57 -12
-52 -15 17 -44 103 -44 33 0 59 -3 59 -7 0 -5 -31 -27 -68 -50 -81 -52 -172
-137 -172 -164 0 -10 3 -19 6 -19 3 0 69 38 145 85 l140 85 92 -15 c50 -9 100
-20 109 -26 10 -5 26 -9 37 -9 15 0 19 -7 17 -32 -1 -30 4 -35 54 -62 83 -43
150 -87 150 -97 0 -5 -11 -9 -24 -9 -14 0 -28 -4 -31 -10 -4 -6 9 -10 32 -10
21 0 65 -7 98 -15 79 -19 96 -19 89 0 -9 22 22 19 46 -5 11 -11 20 -16 20 -11
0 6 -4 13 -10 16 -21 13 -8 25 28 25 20 0 43 4 50 9 19 12 -19 21 -88 21 -49
0 -66 6 -145 53 -143 86 -141 104 17 158 176 59 265 133 336 278 33 68 37 85
39 162 2 85 2 87 44 143 26 35 52 59 68 62 14 4 49 12 76 19 l50 12 -55 27
c-30 14 -60 26 -65 26 -6 0 -33 19 -60 41 -86 71 -137 84 -210 50z m-401 -885
c-7 -19 13 -37 105 -91 74 -43 98 -65 70 -65 -17 0 -201 113 -206 127 -8 19 4
43 21 43 9 0 13 -6 10 -14z"/>
<path d="M1552 2181 c3 -121 5 -131 27 -155 49 -52 147 -42 178 17 13 23 18
64 21 150 4 114 3 117 -17 117 -20 0 -21 -5 -21 -116 0 -63 -5 -124 -11 -135
-27 -52 -119 -43 -138 13 -6 17 -11 78 -11 134 0 88 -2 104 -16 104 -14 0 -15
-17 -12 -129z"/>
<path d="M1887 2286 c-8 -20 20 -43 35 -28 14 14 3 42 -16 42 -7 0 -16 -6 -19
-14z"/>
<path d="M2090 2203 c-17 -12 -25 -13 -28 -5 -2 7 -10 12 -18 12 -11 0 -14
-21 -14 -105 0 -87 3 -105 15 -105 11 0 15 13 15 54 0 92 26 136 79 136 12 0
21 7 21 15 0 20 -39 19 -70 -2z"/>
<path d="M2249 2192 c-81 -73 -20 -219 83 -197 15 4 35 13 43 22 13 13 15 13
15 -1 0 -9 7 -16 15 -16 12 0 15 18 15 105 0 87 -3 105 -15 105 -8 0 -15 -5
-15 -10 0 -6 -13 -4 -30 5 -43 22 -76 18 -111 -13z m108 -17 c27 -19 38 -70
24 -108 -22 -56 -98 -61 -126 -7 -22 42 -19 77 10 105 28 29 61 32 92 10z"/>
<path d="M2572 2204 c-12 -8 -22 -10 -22 -5 0 6 -9 11 -20 11 -19 0 -20 -7
-20 -150 0 -145 1 -150 21 -150 19 0 20 4 16 49 -3 27 -3 52 0 54 2 3 16 -1
31 -9 34 -18 47 -18 87 1 39 19 55 51 55 108 -1 83 -85 135 -148 91z m95 -36
c32 -30 32 -90 -2 -123 -30 -30 -54 -31 -89 -4 -21 17 -26 29 -26 65 0 76 65
111 117 62z"/>
<path d="M3136 2199 c-21 -17 -26 -18 -26 -5 0 9 -7 16 -15 16 -12 0 -15 -18
-15 -105 0 -87 3 -105 15 -105 11 0 15 12 15 48 0 95 26 142 79 142 12 0 21 7
21 15 0 22 -43 19 -74 -6z"/>
<path d="M1890 2105 c0 -87 3 -105 15 -105 12 0 15 18 15 105 0 87 -3 105 -15
105 -12 0 -15 -18 -15 -105z"/>
<path d="M2810 2122 c0 -97 8 -114 63 -128 21 -5 36 -1 58 15 23 17 29 19 29
6 0 -8 7 -15 15 -15 12 0 15 18 15 105 0 87 -3 105 -15 105 -12 0 -15 -14 -15
-69 0 -78 -23 -121 -65 -121 -43 0 -55 24 -55 111 0 64 -3 79 -15 79 -12 0
-15 -16 -15 -88z"/>
<path d="M3280 2122 c0 -97 8 -114 63 -128 21 -5 36 -1 58 15 23 17 29 19 29
6 0 -8 7 -15 15 -15 12 0 15 18 15 105 0 87 -3 105 -15 105 -12 0 -15 -14 -15
-69 0 -78 -23 -121 -65 -121 -43 0 -55 24 -55 111 0 64 -3 79 -15 79 -12 0
-15 -16 -15 -88z"/>
</g>
</svg>
